<svg viewBox="0 0 263 303" fill="none" xmlns="http://www.w3.org/2000/svg">
    <path d="M86.5259 81.7378C86.6344 80.9415 86.7845 80.16 86.974 79.3856C89.7923 67.8689 90.155 55.96 90.0619 44.1578C90.0412 41.5407 90.0148 38.7758 90.0794 36.1341C90.2639 28.8759 91.0733 21.6475 92.4981 14.5289C93.4904 9.67508 94.775 -1.11272 102.364 1.49721C105.537 2.58834 106.921 7.13404 108.428 10.0656C109.734 12.605 111.178 15.0706 112.754 17.4513C116.606 23.2602 120.355 27.682 124.923 32.8281C132.238 41.0694 142.71 51.5954 147.146 61.7174C149.192 59.9765 150.857 57.6948 152.684 55.7242C155.568 52.6144 158.662 49.5953 161.737 46.6738C172.573 36.3801 184.378 26.7928 196.233 17.6925C198.065 16.2864 199.675 15.2782 202.081 15.6312C203.644 15.8608 205.151 16.8741 206.056 18.1589C210.189 24.0325 202.571 65.4742 201.197 74.152C200.355 79.4714 199.785 84.8369 198.92 90.1467C206.542 90.5985 210.9 90.4154 218.529 88.9752C221.948 88.3009 225.338 87.4863 228.69 86.5335C236.559 84.3257 251.387 78.9385 259.507 81.058C261.183 81.4952 262.36 83.7728 263 85.3322V87.4828C261.383 91.3655 258.624 92.4879 255.935 95.4788C246.979 105.438 239.805 116.836 231.849 127.579C227.687 133.249 223.582 138.304 218.949 143.595C228.654 149.122 238.433 152.444 249.666 152.893C255.844 153.14 259.901 150.747 263 157.351V159.844C261.083 163.818 259.367 164.115 255.699 166.225C253.405 167.543 251.14 168.908 248.904 170.32C238.568 176.831 226.801 185.556 218.668 194.647C223.955 198.979 228.804 203.821 234.378 207.861C237.646 210.231 240.94 212.214 244.242 214.462C246.08 215.714 246.802 218.012 246.407 220.118C245.821 223.603 243.159 224.633 240.138 225.526C232.909 227.661 225.714 230.377 218.469 232.393C219.903 237.994 220.821 243.315 222.731 248.871C223.924 252.345 227.147 258.797 226.247 261.971C225.817 263.471 224.8 264.733 223.428 265.468C221.543 266.488 219.586 266.115 217.574 265.732C211.168 264.518 204.726 263.107 198.466 261.269C198.776 263.012 198.759 264.843 199.006 266.524C200.775 278.608 195.167 279.694 184.888 275.534C170.364 297.669 146.655 306.432 120.941 301.415C104.565 298.219 90.963 287.924 81.7307 274.226C76.9226 275.25 65.6626 279.565 61.6376 274.864C59.4509 272.31 61.2627 267.298 62.0667 264.337C62.648 262.274 63.1873 260.199 63.684 258.115C55.8799 258.108 48.1115 258.266 40.3156 257.87C34.9038 257.575 33.0016 253.401 35.0497 248.637C36.9363 244.25 38.3604 239.703 40.5611 235.356C42.3721 231.778 43.4925 226.978 43.9546 223C36.9226 218.723 29.6031 215.895 21.7551 213.482C18.4581 212.467 10.4831 211.202 9.03033 208.265C5.95445 202.047 13.0996 198.697 16.5349 195.528C18.8556 193.387 35.0417 181.074 35.4184 179.669C34.7396 178.32 16.8238 169.021 14.5465 167.897C11.6027 166.445 8.59224 165.166 5.62091 163.777C3.59212 162.829 1.9566 161.971 1.17878 159.734C0.692596 158.336 0.865403 156.836 1.50795 155.518C4.44934 149.482 26.8623 141.263 33.9312 138.478C37.2147 137.185 40.4572 135.695 43.8036 134.583C43.4497 132.272 40.8382 125.249 39.9418 122.8C35.9371 112.091 31.5055 101.548 26.6573 91.1955L21.5675 80.6514C20.5625 78.6149 19.5403 76.6845 18.6302 74.5551C16.6619 70.0103 20.0013 65.0332 25.0878 66.2237C27.3967 66.7643 29.8627 67.9176 32.1328 68.722C36.2872 70.1968 40.4906 71.5295 44.7357 72.7177C58.386 76.4667 72.6163 79.0637 86.5259 81.7378ZM187.266 249.994C187.497 249.305 187.638 248.652 187.805 247.948L187.46 247.47C187.296 248.142 187.065 248.985 186.935 249.649L187.266 249.994Z" fill="black"/>
    <path d="M187.266 249.994C183.432 264.602 173.847 280.071 160.566 287.681C148.36 294.675 132.848 295.964 119.381 292.349C104.381 288.324 92.9143 277.39 85.3557 264.152C81.2072 256.794 78.1597 248.865 76.3105 240.62C75.1707 235.468 74.5102 229.808 73.9526 224.545C71.5698 202.055 72.2118 179.291 74.8171 156.85C75.6382 149.777 76.4884 142.502 78.3457 135.641C82.5136 120.244 91.1998 106.315 105.361 98.3315C119.602 90.3028 137.838 89.1953 153.45 93.3088C165.542 96.5141 175.811 104.474 181.913 115.415C184.729 120.466 186.936 125.801 188.399 131.39C193.105 149.369 194.637 168.294 194.379 186.806C194.202 196.217 193.666 205.619 192.771 214.989C191.775 226.276 190.827 236.993 187.805 247.948L187.46 247.47C187.296 248.142 187.065 248.985 186.935 249.65L187.266 249.994Z" fill="#D4C9B9"/>
    <path d="M186.935 249.65C186.146 252.31 184.978 255.013 183.311 257.24C180.828 260.557 177.363 263.001 173.203 263.545C171.54 263.764 169.645 263.857 168.268 262.706C167.797 262.312 167.441 261.771 167.434 261.14C167.396 257.83 171.602 258.812 173.609 258.311C175.267 257.898 176.723 256.975 177.929 255.778C179.759 253.96 181.12 251.46 181.934 249.029C185.435 238.586 177.946 236.793 178.061 234.109C178.092 233.386 178.405 232.629 178.97 232.162C179.476 231.746 180.07 231.54 180.726 231.62C182.248 231.804 183.716 233.306 184.626 234.437C187.778 238.354 187.997 242.665 187.46 247.47C187.296 248.142 187.065 248.985 186.935 249.65Z" fill="black"/>
    <path d="M159.724 142.635C165.843 141.417 179.386 145.343 183.747 149.576C190.987 156.604 191.933 170.998 189.538 180.18C186.729 190.945 176.615 199.873 165.281 199.854C157.275 199.957 149.594 197.593 143.371 192.426C131.69 182.727 131.106 163.088 140.658 151.733C142.04 149.912 143.865 149.002 145.673 147.799C150.648 144.489 153.744 143.136 159.724 142.635Z" fill="black"/>
    <path d="M160.134 147.582C165.617 146.616 174.954 149.608 179.468 152.655C183.027 155.058 184.838 161.436 185.502 165.55C180.076 166.115 174.288 165.915 168.868 165.316C158.614 164.196 151.18 163.347 142.011 158.405C144.474 154.813 145.231 154.023 149.004 151.688C153.471 148.924 154.827 148.236 160.134 147.582Z" fill="#D4C9B9"/>
    <path d="M141.167 181.25C143.632 181.149 147.045 181.317 149.634 181.366C160.17 181.566 171.736 181.951 181.89 184.966C180.599 187.009 179.007 188.844 177.168 190.408C168.417 197.848 153.865 195.207 145.863 187.884C144.241 186.399 141.837 183.434 141.167 181.25Z" fill="#D4C9B9"/>
    <path d="M140.211 163.206C145.95 166.223 155.225 169.147 161.703 169.4C161.992 169.747 163.991 171.865 163.991 171.866C164.662 174.583 163.656 175.528 167.5 176.524C169.432 176.02 170.127 175.686 171.222 173.979C174.123 174.018 175.228 174.028 175.902 170.918C179.359 170.894 182.224 170.873 185.697 170.678C185.632 172.232 185.534 173.274 185.325 174.817C185.146 177.212 185.002 178.14 184.293 180.348C169.141 176.362 155.118 176.25 139.533 176.232C138.653 170.85 138.676 168.536 140.211 163.206Z" fill="#FEFEFE"/>
    <path d="M101.733 142.634C108.135 141.518 121.298 145.23 125.858 149.629C132.979 156.5 133.944 170.804 131.694 179.824C128.966 190.761 118.869 199.805 107.389 199.856C99.205 199.959 91.6895 197.559 85.3011 192.331C72.4061 181.782 72.8996 156.396 87.7071 147.825C90.137 146.419 92.5247 144.678 95.222 143.79C97.3336 143.095 99.5231 142.823 101.733 142.634Z" fill="black"/>
    <path d="M111.856 158.058C113.246 157.7 123.918 158.07 125.661 158.428C127.975 163.486 128.372 173.567 126.778 178.776C122.611 192.399 110.969 197.317 98.1111 193.579C92.8409 191.963 87.8496 188.905 84.7964 184.218C81.4969 179.153 80.2446 172.095 81.465 166.207C86.0031 164.761 90.5497 163.343 95.1047 161.952C100.629 160.267 106.078 158.401 111.856 158.058Z" fill="#FEFEFE"/>
    <path d="M98.3719 166.571C102.734 166.188 103.28 168.002 101.37 171.555C101.435 172.809 103.124 173.979 102.387 175.193C101 177.476 100.057 177.098 98.041 176.02C96.8951 176.062 97.3244 177.201 95.5313 177.85C92.0416 178.296 92.1946 175.936 92.8491 173.578C93.0075 173.008 90.3169 171.799 90.2884 170.823C90.2664 170.065 90.227 169.789 90.7217 169.018C91.9208 166.497 94.6595 168.729 95.3683 168.262C96.6584 167.414 96.2207 167.165 98.3719 166.571Z" fill="black"/>
    <path d="M102.179 147.583C109.528 146.546 116.723 150.048 122.974 153.297C114.327 152.425 107.462 152.963 99.2798 155.496C93.9265 156.989 88.4486 158.773 83.1187 160.407C85.322 155.82 86.8801 154.284 91.0408 151.689C95.4532 148.937 97.0164 148.216 102.179 147.583Z" fill="#D4C9B9"/>
    <path d="M140.154 228.479C147.119 227.437 165.952 232.149 172.426 235.459C184.01 241.382 172.677 262.546 160.654 254.575C159.897 256.307 159.275 257.58 157.881 258.903C156.236 260.454 154.044 261.29 151.786 261.227C149.878 261.174 148.349 260.513 147.051 259.126C145.918 265.673 144.852 276.956 135.601 277.578C133.916 277.69 132.623 276.684 131.473 275.545C129.442 272.689 128.788 265.464 126.758 260.818C125.556 261.608 124.533 262.156 123.104 262.459C121.046 262.898 118.898 262.491 117.144 261.328C114.614 259.665 113.571 257.242 112.957 254.402C107.46 255.984 101.117 258.677 96.0731 254.583C94.1027 252.952 92.8576 250.607 92.6106 248.058C92.3934 245.645 93.2768 243.197 94.8506 241.378C100.952 234.323 130.586 229.085 140.154 228.479Z" fill="black"/>
    <path d="M135.781 249.598C140.067 249.012 152.374 251.265 156.58 252.933C156.123 253.81 155.493 255.061 154.746 255.74C151.343 258.831 149.165 253.795 146.451 254.014C142.558 254.387 142.562 259.265 142.06 262.175C141.388 266.077 140.914 269.069 138.052 272.009C137.277 272.599 136.622 273.174 135.609 273.056C133.451 272.097 132.84 262.398 131.169 259.655C128.359 255.045 125.492 256.469 121.676 258.412C118.62 257.499 117.857 256.412 117.299 253.298C123.359 251.716 129.564 250.344 135.781 249.598Z" fill="#D5EABC"/>
    <path d="M164.311 237.648C166.459 238.116 170.187 239.402 171.438 241.336C172.188 242.503 172.435 243.923 172.122 245.274C171.529 247.935 168.467 251.81 165.224 251.218C163.656 250.75 162.141 249.733 160.644 249.079C153.232 245.841 145.099 245.019 137.093 244.6C134.417 244.461 131.262 245.095 128.573 245.601C123.526 246.587 118.516 247.752 113.553 249.096C110.486 249.916 107.44 250.797 104.343 251.5C101.092 252.238 99.2604 251.442 97.7098 248.5C97.0202 244.334 100.77 243.053 103.829 241.445C106.71 248.003 114.157 250.911 117.432 243.156C121.684 246.945 125.773 244.969 128.59 240.727C132.186 244.743 136.329 244.987 139.259 240.12C142.885 244.634 146.808 244.598 150.803 240.603C155.724 247.733 160.907 243.394 164.311 237.648Z" fill="#652827"/>
    <path d="M140.946 233.363C143.758 233.297 146.032 233.506 148.814 233.91C148.466 235.385 147.949 236.557 147.199 237.861C143.791 241.365 141.951 236.013 140.946 233.363Z" fill="#D5EABC"/>
    <path d="M135.218 233.993C135.518 233.934 135.515 233.98 135.845 234.047C136.4 235.329 135.596 238.63 134.035 239.191C133.316 239.203 133.242 239.069 132.628 238.609C131.595 237.145 131.278 236.401 130.732 234.694C132.325 234.391 133.607 234.18 135.218 233.993Z" fill="#D5EABC"/>
    <path d="M124.966 235.872L125.238 235.933C125.608 237.322 123.737 241.941 120.791 240.171C119.908 238.961 119.696 238.428 119.087 237.078C121.006 236.627 123.026 236.256 124.966 235.872Z" fill="#D5EABC"/>
    <path d="M113.192 238.494C113.298 238.485 113.694 238.517 113.825 238.525C114.085 239.123 113.776 240.858 113.489 241.458C112.519 243.481 111.64 243.51 109.993 242.737C109.09 241.831 108.666 241.068 107.996 239.994C109.716 239.454 111.449 238.955 113.192 238.494Z" fill="#D5EABC"/>
    <path d="M153.799 234.901C155.848 235.381 157.885 235.912 159.908 236.494L158.298 238.55C155.31 241.987 154.169 237.166 153.799 234.901Z" fill="#D5EABC"/>
    <path d="M132.736 106.506C135.266 106.167 137.76 106.456 140.279 106.585C149.176 107.041 156.101 109.851 164.352 113.15C172.762 116.631 183.174 120.405 187.289 129.308C189.043 133.101 188.707 137.226 184.442 138.883C180.086 138.552 175.246 135.705 171.43 133.535C159.509 126.755 150.813 122.785 136.847 122.777C124.115 122.746 111.553 127.447 100.37 133.255C97.5876 134.699 86.2653 141.356 83.6608 138.63C79.1296 133.887 86.3816 124.401 90.5754 121.246C102.575 112.22 117.931 107.848 132.736 106.506Z" fill="black"/>
    <path d="M134.096 111.431C136.567 110.99 147.043 112.142 149.305 113.044C159.233 117.003 180.772 122.005 183.403 133.845C177.77 131.525 172.795 128.491 167.445 125.603C157.624 120.301 148.021 117.763 136.885 117.779C125.414 117.646 112.228 121.743 102.089 126.753C96.993 129.271 92.5553 131.704 87.2888 134.023C92.066 121.683 111.289 115.161 123.194 112.75C126.79 112.036 130.434 111.596 134.096 111.431Z" fill="#B0DAEB"/>
    <path d="M123.641 194.529C124.691 194.483 126.799 194.571 126.86 196.038C127.089 201.516 127.922 219.694 134.205 221.812C137.411 220.861 138.75 207.098 138.698 204.093C138.675 202.808 138.363 195.612 139.343 195.115C144.352 192.571 143.733 198.37 143.684 201.278C143.738 207.188 142.97 222.678 137.087 226.045C135.739 226.831 134.133 227.037 132.631 226.62C124.634 224.361 122.527 208.741 122.118 201.841C121.984 199.561 121.37 195.764 123.641 194.529Z" fill="black"/>
    <path d="M181.82 198.728C184.045 198.513 186.514 199.554 185.001 202.144C183.294 205.064 178.363 207.545 175.148 208.526C167.482 210.861 158.37 210.029 151.254 206.312C149.737 205.362 148.828 204.757 148.667 202.803C148.525 201.086 150.483 200.578 151.793 200.848C152.917 201.08 154.354 202.359 155.421 202.797C158.379 204.009 161.57 204.593 164.757 204.715C171.878 204.991 176.54 203.558 181.82 198.728Z" fill="black"/>
    <path d="M81.8611 200.045C84.9266 199.656 85.5873 202.471 88.0265 203.372C95.02 205.949 104.088 206.807 111.186 204.209C111.873 203.958 112.24 203.423 113.097 203.461C116.003 203.592 116.662 206.468 114.33 208.223C106.429 212.684 87.7694 211.301 81.0833 204.582C79.5342 203.025 80.3961 201.225 81.8611 200.045Z" fill="black"/>
    <path d="M86.0728 237.716C87.0308 237.714 88.2732 237.969 88.8053 238.866C89.8753 240.67 88.1451 242.347 87.3291 243.86C86.8559 244.737 86.3881 245.577 86.2087 246.589C85.36 252.402 89.0209 259.754 95.6613 259.415C96.2048 259.389 97.8729 259.134 98.2455 259.267C100.693 260.133 100.86 262.944 98.4378 264.154C97.6361 264.373 97.1164 264.335 96.3329 264.402C85.2082 265.355 78.6722 252.811 82.0195 243.186C82.7295 241.144 84.0511 238.702 86.0728 237.716Z" fill="black"/>
    <path d="M156.134 267.238C157.697 267.127 159.102 267.299 160.511 268.031C162.243 268.943 163.53 270.521 164.076 272.403C165.341 276.68 162.69 280.73 158.485 281.881C147.793 282.359 147.997 269.765 156.134 267.238Z" fill="black"/>
    <path d="M156.783 271.533C157.26 271.56 157.728 271.676 158.161 271.878C159.263 272.386 159.672 273.284 160.077 274.323C159.991 274.592 159.9 274.858 159.803 275.125C159.323 276.434 159 276.963 157.743 277.55C153.249 277.283 154.417 273.8 156.783 271.533Z" fill="#D5EABC"/>
    <path d="M101.129 14.6264C101.644 15.1052 105.005 21.0263 105.688 22.1104C114.347 35.8623 127.734 46.4007 136.508 59.9388C138.333 62.7199 139.885 65.6715 141.142 68.7519C141.712 70.1516 142.963 74.1749 143.656 75.0901C146.238 78.2351 150.039 71.7455 151.474 70.0183C165.336 53.3419 181.706 39.9975 198.768 26.5683C198.856 34.708 197.636 42.9219 196.408 50.9546C195.226 58.6914 189.313 91.3176 190.272 95.9385C190.396 96.5291 190.544 96.8346 191.082 97.1589C192.676 98.1225 195.369 98.1585 197.203 98.388C215.643 100.696 232.594 93.5712 250.131 89.4141C234.697 105.735 224.536 127.427 207.764 142.778C204.853 145.443 211.189 148.643 212.973 149.805C223.571 156.705 235.091 160.078 247.57 161.247C235.288 168.299 221.807 178.527 212.365 189.065C211.099 190.477 209.577 191.918 208.597 193.536C208.222 194.154 207.78 195.001 208.019 195.74C208.946 198.6 230.881 216.198 234.75 218.269C227.143 221.017 218.425 223.561 210.622 226.104C213.579 214.11 209.828 206.94 198.73 201.83C200.574 179.568 198.816 145.34 191.416 124.149C189.601 118.801 187.073 113.723 183.9 109.053C174.75 95.7122 162.611 89.6176 147.124 86.7608C143.237 86.2675 139.322 86.0172 135.404 86.0113C118.173 86.0893 102.393 91.1682 90.3095 103.739C74.1687 120.531 71.6964 138.872 69.3858 160.698C68.0142 173.763 67.3757 186.894 67.473 200.03C63.9064 201.986 57.5721 205.825 55.581 209.475C53.4542 213.377 54.007 219.348 55.3427 223.541C58.0957 232.183 63.6418 238.131 71.5588 242.29C72.8001 248.279 77.0917 260.597 80.493 265.546C76.5872 266.914 73.8985 267.626 69.8026 268.275C70.9804 263.307 72.5126 258.41 73.6577 253.433C73.9823 252.023 73.7063 250.31 72.0253 250.026C69.6245 249.623 67.1082 249.678 64.6775 249.678L51.9313 249.693C49.7895 249.697 46.2264 249.79 44.2089 249.518L43.9497 249.482C45.8164 243.555 48.2765 239.448 50.2503 233.689C51.1239 231.14 53.4873 221.546 52.502 218.859C52.1477 217.892 49.0144 216.144 47.9074 215.505C39.038 210.395 29.5014 206.548 19.5724 204.074C23.724 200.543 46.5554 182.986 48.3035 179.364C48.5218 178.912 48.454 178.315 48.2774 177.86C48.1161 177.444 47.8451 177.108 47.5116 176.819C45.2877 174.886 42.0099 173.395 39.4498 171.906C30.8603 166.912 21.254 161.082 12.0366 157.417C12.8536 157.078 21.5018 152.702 22.2779 152.32C26.7074 150.136 51.4275 141.334 53.3499 138.762C53.9675 136.864 51.8633 131.425 51.1619 129.309C44.9888 111.259 37.594 93.6508 29.0292 76.6078C33.4337 78.1443 37.8863 79.5392 42.3801 80.7899C47.7788 82.2828 89.7765 92.0682 91.8703 90.6326C93.1566 89.7506 93.834 86.2604 94.2437 84.798C97.211 74.2091 98.3098 63.1485 98.4323 52.1716C98.5023 45.9011 98.2336 39.5872 98.5743 33.3258C98.9125 27.1098 99.5296 20.6459 101.129 14.6264Z" fill="#B0DAEB"/>
    <path d="M209.343 229.498C209.647 229.789 210.904 237.236 211.154 238.443C212.485 244.865 214.63 250.805 216.585 257.042C212.886 255.961 207.179 254.851 203.126 253.808C199.515 252.737 195.916 251.623 192.33 250.466C193.189 247.565 193.907 244.623 194.479 241.652C201.689 240.466 206.301 235.826 209.343 229.498Z" fill="#B0DAEB"/>
    <path d="M198.519 207.304C203.059 209.175 206.607 213.864 206.605 218.87C206.613 224.269 204.469 229.45 200.652 233.262C199 234.785 197.55 235.524 195.462 236.256C196.486 229.774 196.961 222.707 197.681 216.152C198.004 213.223 198.056 210.227 198.519 207.304Z" fill="#D4C9B9"/>
    <path d="M67.3082 205.928L67.5625 206.059C68.0079 208.451 67.8865 212.72 68.1343 215.408C68.7397 221.972 69.1648 229.382 70.3983 235.849C68.7509 234.61 67.6241 233.571 66.1597 232.139C61.6843 227.781 56.434 216.856 60.6491 210.983C61.7303 209.477 65.5845 207.072 67.3082 205.928Z" fill="#D4C9B9"/>
    <path d="M189.6 258.597C190.303 259.28 190.588 267.26 190.605 268.669L187.939 267.595C187.299 267.335 186.655 267.082 186.009 266.834C187.392 263.951 188.485 261.596 189.6 258.597Z" fill="#B0DAEB"/>
    <path d="M186.935 249.65C187.065 248.985 187.296 248.142 187.46 247.47L187.805 247.948C187.638 248.652 187.497 249.305 187.266 249.994L186.935 249.65Z" fill="#BDB6AA" fill-opacity="0.988235"/>
</svg>
